<mxfile host="app.diagrams.net" modified="2023-06-29T15:58:56.675Z" agent="Mozilla/5.0 (Windows NT 10.0; Win64; x64; rv:109.0) Gecko/20100101 Firefox/115.0" etag="m8LYpL8Qj_W6HYu6HbRd" version="21.3.2" type="device">
  <diagram name="Page-1" id="kaoYOqhvuLUMERpKKi9R">
    <mxGraphModel dx="3267" dy="132" grid="1" gridSize="10" guides="1" tooltips="1" connect="1" arrows="1" fold="1" page="1" pageScale="1" pageWidth="827" pageHeight="1169" math="0" shadow="0">
      <root>
        <mxCell id="0" />
        <mxCell id="1" parent="0" />
        <mxCell id="7pwwrW8SkEieM3p2LjNU-1" value="Articles" style="swimlane;fontStyle=1;align=center;verticalAlign=top;childLayout=stackLayout;horizontal=1;startSize=26;horizontalStack=0;resizeParent=1;resizeParentMax=0;resizeLast=0;collapsible=1;marginBottom=0;whiteSpace=wrap;html=1;" parent="1" vertex="1">
          <mxGeometry x="678" y="1711" width="160" height="300" as="geometry" />
        </mxCell>
        <mxCell id="7pwwrW8SkEieM3p2LjNU-2" value="&lt;div&gt;+ id : int&lt;/div&gt;&lt;div&gt;+ id_author : int&lt;br&gt;&lt;/div&gt;&lt;div&gt;+ title : string&lt;/div&gt;&lt;div&gt;+ illustration : string&lt;/div&gt;&lt;div&gt;+ subtitle : string&lt;/div&gt;&lt;div&gt;+ content : string&lt;/div&gt;&lt;div&gt;+ slug : string&lt;br&gt;&lt;/div&gt;&lt;div&gt;+ validate : boolean&lt;br&gt;&lt;/div&gt;&lt;div&gt;+ visible : boolean&lt;br&gt;&lt;/div&gt;&lt;div&gt;+ creation_date : datetime&lt;br&gt;&lt;/div&gt;&lt;div&gt;+ update_date : datetime&lt;/div&gt;&lt;div&gt;&lt;br&gt;&lt;/div&gt;" style="text;strokeColor=none;fillColor=none;align=left;verticalAlign=top;spacingLeft=4;spacingRight=4;overflow=hidden;rotatable=0;points=[[0,0.5],[1,0.5]];portConstraint=eastwest;whiteSpace=wrap;html=1;" parent="7pwwrW8SkEieM3p2LjNU-1" vertex="1">
          <mxGeometry y="26" width="160" height="174" as="geometry" />
        </mxCell>
        <mxCell id="7pwwrW8SkEieM3p2LjNU-3" value="" style="line;strokeWidth=1;fillColor=none;align=left;verticalAlign=middle;spacingTop=-1;spacingLeft=3;spacingRight=3;rotatable=0;labelPosition=right;points=[];portConstraint=eastwest;strokeColor=inherit;" parent="7pwwrW8SkEieM3p2LjNU-1" vertex="1">
          <mxGeometry y="200" width="160" height="8" as="geometry" />
        </mxCell>
        <mxCell id="7pwwrW8SkEieM3p2LjNU-4" value="&lt;div&gt;+ getArticles()&lt;br&gt;&lt;/div&gt;&lt;div&gt;+ getArticle()&lt;br&gt;&lt;/div&gt;&lt;div&gt;+ addArticle()&lt;/div&gt;&lt;div&gt;+ updateArticle()&lt;/div&gt;&lt;div&gt;+ deleteArticle()&lt;/div&gt;" style="text;strokeColor=none;fillColor=none;align=left;verticalAlign=top;spacingLeft=4;spacingRight=4;overflow=hidden;rotatable=0;points=[[0,0.5],[1,0.5]];portConstraint=eastwest;whiteSpace=wrap;html=1;" parent="7pwwrW8SkEieM3p2LjNU-1" vertex="1">
          <mxGeometry y="208" width="160" height="92" as="geometry" />
        </mxCell>
        <mxCell id="7pwwrW8SkEieM3p2LjNU-5" value="Users" style="swimlane;fontStyle=1;align=center;verticalAlign=top;childLayout=stackLayout;horizontal=1;startSize=26;horizontalStack=0;resizeParent=1;resizeParentMax=0;resizeLast=0;collapsible=1;marginBottom=0;whiteSpace=wrap;html=1;" parent="1" vertex="1">
          <mxGeometry x="-12" y="1701" width="290" height="320" as="geometry" />
        </mxCell>
        <mxCell id="7pwwrW8SkEieM3p2LjNU-6" value="&lt;div&gt;+ id : int&lt;/div&gt;&lt;div&gt;+ pseudonym : string&lt;br&gt;&lt;/div&gt;&lt;div&gt;+ mail_adress : string&lt;br&gt;&lt;/div&gt;&lt;div&gt;+ password : string&lt;/div&gt;&lt;div&gt;+ role : int&lt;br&gt;&lt;/div&gt;&lt;div&gt;+ slug : string&lt;br&gt;&lt;/div&gt;&lt;div&gt;+ reset_password_token : string&lt;br&gt;&lt;/div&gt;&lt;div&gt;+ reset_password_token_creation_date : datetime&lt;br&gt;&lt;/div&gt;&lt;div&gt;+ last_connexion : datetime&lt;br&gt;&lt;/div&gt;&lt;div&gt;+ creation_date : datetime&lt;/div&gt;&lt;div&gt;&lt;br&gt;&lt;/div&gt;" style="text;strokeColor=none;fillColor=none;align=left;verticalAlign=top;spacingLeft=4;spacingRight=4;overflow=hidden;rotatable=0;points=[[0,0.5],[1,0.5]];portConstraint=eastwest;whiteSpace=wrap;html=1;" parent="7pwwrW8SkEieM3p2LjNU-5" vertex="1">
          <mxGeometry y="26" width="290" height="154" as="geometry" />
        </mxCell>
        <mxCell id="7pwwrW8SkEieM3p2LjNU-7" value="" style="line;strokeWidth=1;fillColor=none;align=left;verticalAlign=middle;spacingTop=-1;spacingLeft=3;spacingRight=3;rotatable=0;labelPosition=right;points=[];portConstraint=eastwest;strokeColor=inherit;" parent="7pwwrW8SkEieM3p2LjNU-5" vertex="1">
          <mxGeometry y="180" width="290" height="8" as="geometry" />
        </mxCell>
        <mxCell id="7pwwrW8SkEieM3p2LjNU-8" value="&lt;div&gt;+ getUsers()&lt;br&gt;&lt;/div&gt;&lt;div&gt;+ getUser()&lt;br&gt;&lt;/div&gt;&lt;div&gt;+ addUser()&lt;/div&gt;&lt;div&gt;+ updateUser()&lt;/div&gt;&lt;div&gt;+ deleteUser()&lt;/div&gt;&lt;div&gt;+ UpdateLastConnexion()&lt;/div&gt;&lt;div&gt;+ resetPassword()&lt;/div&gt;&lt;div&gt;+ checkPasswordToken()&lt;/div&gt;" style="text;strokeColor=none;fillColor=none;align=left;verticalAlign=top;spacingLeft=4;spacingRight=4;overflow=hidden;rotatable=0;points=[[0,0.5],[1,0.5]];portConstraint=eastwest;whiteSpace=wrap;html=1;" parent="7pwwrW8SkEieM3p2LjNU-5" vertex="1">
          <mxGeometry y="188" width="290" height="132" as="geometry" />
        </mxCell>
        <mxCell id="7pwwrW8SkEieM3p2LjNU-9" value="MailForm" style="swimlane;fontStyle=1;align=center;verticalAlign=top;childLayout=stackLayout;horizontal=1;startSize=26;horizontalStack=0;resizeParent=1;resizeParentMax=0;resizeLast=0;collapsible=1;marginBottom=0;whiteSpace=wrap;html=1;" parent="1" vertex="1">
          <mxGeometry x="398" y="1486" width="160" height="210" as="geometry" />
        </mxCell>
        <mxCell id="7pwwrW8SkEieM3p2LjNU-10" value="&lt;div&gt;+ id : int&lt;/div&gt;&lt;div&gt;+ first_name : string&lt;br&gt;&lt;/div&gt;&lt;div&gt;+ last_name : string&lt;br&gt;&lt;/div&gt;&lt;div&gt;+ mail_adress : string&lt;/div&gt;&lt;div&gt;+ message : string&lt;/div&gt;&lt;div&gt;+ slug : string&lt;br&gt;&lt;/div&gt;&lt;div&gt;+ creation_date : datetime&lt;/div&gt;&lt;div&gt;&lt;br&gt;&lt;/div&gt;" style="text;strokeColor=none;fillColor=none;align=left;verticalAlign=top;spacingLeft=4;spacingRight=4;overflow=hidden;rotatable=0;points=[[0,0.5],[1,0.5]];portConstraint=eastwest;whiteSpace=wrap;html=1;" parent="7pwwrW8SkEieM3p2LjNU-9" vertex="1">
          <mxGeometry y="26" width="160" height="114" as="geometry" />
        </mxCell>
        <mxCell id="7pwwrW8SkEieM3p2LjNU-11" value="" style="line;strokeWidth=1;fillColor=none;align=left;verticalAlign=middle;spacingTop=-1;spacingLeft=3;spacingRight=3;rotatable=0;labelPosition=right;points=[];portConstraint=eastwest;strokeColor=inherit;" parent="7pwwrW8SkEieM3p2LjNU-9" vertex="1">
          <mxGeometry y="140" width="160" height="8" as="geometry" />
        </mxCell>
        <mxCell id="7pwwrW8SkEieM3p2LjNU-12" value="&lt;div&gt;+ getMailForms()&lt;br&gt;&lt;/div&gt;&lt;div&gt;+ getMailForm()&lt;br&gt;&lt;/div&gt;&lt;div&gt;+ addMailForm()&lt;/div&gt;" style="text;strokeColor=none;fillColor=none;align=left;verticalAlign=top;spacingLeft=4;spacingRight=4;overflow=hidden;rotatable=0;points=[[0,0.5],[1,0.5]];portConstraint=eastwest;whiteSpace=wrap;html=1;" parent="7pwwrW8SkEieM3p2LjNU-9" vertex="1">
          <mxGeometry y="148" width="160" height="62" as="geometry" />
        </mxCell>
        <mxCell id="hm1dYat6MH93WJS7Nq-y-2" style="edgeStyle=orthogonalEdgeStyle;rounded=0;orthogonalLoop=1;jettySize=auto;html=1;endArrow=none;endFill=0;" edge="1" parent="1" source="7pwwrW8SkEieM3p2LjNU-13" target="7pwwrW8SkEieM3p2LjNU-5">
          <mxGeometry relative="1" as="geometry" />
        </mxCell>
        <mxCell id="hm1dYat6MH93WJS7Nq-y-4" style="edgeStyle=orthogonalEdgeStyle;rounded=0;orthogonalLoop=1;jettySize=auto;html=1;endArrow=none;endFill=0;" edge="1" parent="1" source="7pwwrW8SkEieM3p2LjNU-13" target="7pwwrW8SkEieM3p2LjNU-1">
          <mxGeometry relative="1" as="geometry" />
        </mxCell>
        <mxCell id="7pwwrW8SkEieM3p2LjNU-13" value="Comments" style="swimlane;fontStyle=1;align=center;verticalAlign=top;childLayout=stackLayout;horizontal=1;startSize=26;horizontalStack=0;resizeParent=1;resizeParentMax=0;resizeLast=0;collapsible=1;marginBottom=0;whiteSpace=wrap;html=1;" parent="1" vertex="1">
          <mxGeometry x="398" y="1736" width="160" height="250" as="geometry" />
        </mxCell>
        <mxCell id="7pwwrW8SkEieM3p2LjNU-14" value="&lt;div&gt;+ id : int&lt;/div&gt;&lt;div&gt;+ id_author : int&lt;/div&gt;&lt;div&gt;+ id_article : int&lt;br&gt;&lt;/div&gt;&lt;div&gt;+ content : string&lt;br&gt;&lt;/div&gt;&lt;div&gt;+ validate : boolean&lt;/div&gt;&lt;div&gt;+ slug : string&lt;br&gt;&lt;/div&gt;&lt;div&gt;+ creation_date : datetime&lt;/div&gt;&lt;div&gt;&lt;br&gt;&lt;/div&gt;" style="text;strokeColor=none;fillColor=none;align=left;verticalAlign=top;spacingLeft=4;spacingRight=4;overflow=hidden;rotatable=0;points=[[0,0.5],[1,0.5]];portConstraint=eastwest;whiteSpace=wrap;html=1;" parent="7pwwrW8SkEieM3p2LjNU-13" vertex="1">
          <mxGeometry y="26" width="160" height="114" as="geometry" />
        </mxCell>
        <mxCell id="7pwwrW8SkEieM3p2LjNU-15" value="" style="line;strokeWidth=1;fillColor=none;align=left;verticalAlign=middle;spacingTop=-1;spacingLeft=3;spacingRight=3;rotatable=0;labelPosition=right;points=[];portConstraint=eastwest;strokeColor=inherit;" parent="7pwwrW8SkEieM3p2LjNU-13" vertex="1">
          <mxGeometry y="140" width="160" height="8" as="geometry" />
        </mxCell>
        <mxCell id="7pwwrW8SkEieM3p2LjNU-16" value="&lt;div&gt;+ getComments()&lt;br&gt;&lt;/div&gt;&lt;div&gt;+ getComment()&lt;br&gt;&lt;/div&gt;&lt;div&gt;+ addComment()&lt;/div&gt;&lt;div&gt;+ updateComment()&lt;/div&gt;&lt;div&gt;+ deleteComment()&lt;/div&gt;&lt;div&gt;+ valideComment()&lt;br&gt;&lt;/div&gt;" style="text;strokeColor=none;fillColor=none;align=left;verticalAlign=top;spacingLeft=4;spacingRight=4;overflow=hidden;rotatable=0;points=[[0,0.5],[1,0.5]];portConstraint=eastwest;whiteSpace=wrap;html=1;" parent="7pwwrW8SkEieM3p2LjNU-13" vertex="1">
          <mxGeometry y="148" width="160" height="102" as="geometry" />
        </mxCell>
        <mxCell id="7pwwrW8SkEieM3p2LjNU-18" value="1" style="text;html=1;align=center;verticalAlign=middle;resizable=0;points=[];autosize=1;strokeColor=none;fillColor=none;" parent="1" vertex="1">
          <mxGeometry x="278" y="1835" width="30" height="30" as="geometry" />
        </mxCell>
        <mxCell id="7pwwrW8SkEieM3p2LjNU-19" value="*" style="text;html=1;align=center;verticalAlign=middle;resizable=0;points=[];autosize=1;strokeColor=none;fillColor=none;" parent="1" vertex="1">
          <mxGeometry x="368" y="1835" width="30" height="30" as="geometry" />
        </mxCell>
        <mxCell id="7pwwrW8SkEieM3p2LjNU-23" value="*" style="text;html=1;align=center;verticalAlign=middle;resizable=0;points=[];autosize=1;strokeColor=none;fillColor=none;" parent="1" vertex="1">
          <mxGeometry x="558" y="1834" width="30" height="30" as="geometry" />
        </mxCell>
        <mxCell id="7pwwrW8SkEieM3p2LjNU-24" value="1" style="text;html=1;align=center;verticalAlign=middle;resizable=0;points=[];autosize=1;strokeColor=none;fillColor=none;" parent="1" vertex="1">
          <mxGeometry x="648" y="1834" width="30" height="30" as="geometry" />
        </mxCell>
      </root>
    </mxGraphModel>
  </diagram>
</mxfile>
